HIERARCHY
ROOT Hips
{
	OFFSET 0.000000 0.000000 0.000000 
	CHANNELS 6 Xposition Yposition Zposition Zrotation Yrotation Xrotation
	JOINT LeftUpLeg
	{
		OFFSET 1.363060 -1.794630 0.839290 
		CHANNELS 3 Zrotation Yrotation Xrotation
		JOINT LeftLeg
		{
			OFFSET 2.448110 -6.726130 0.000000 
			CHANNELS 3 Zrotation Yrotation Xrotation
			JOINT LeftFoot
			{
				OFFSET 2.562200 -7.039590 0.000000 
				CHANNELS 3 Zrotation Yrotation Xrotation
				JOINT LeftToeBase
				{
					OFFSET 0.157640 -0.433110 2.322550 
					CHANNELS 3 Zrotation Yrotation Xrotation
					End Site
					{
						OFFSET 0.000000 0.000000 0.000000 
					}
				}
			}
		}
	}
	JOINT RightUpLeg
	{
		OFFSET -1.305520 -1.794630 0.839290 
		CHANNELS 3 Zrotation Yrotation Xrotation
		JOINT RightLeg
		{
			OFFSET -2.542530 -6.985550 0.000000 
			CHANNELS 3 Zrotation Yrotation Xrotation
			JOINT RightFoot
			{
				OFFSET -2.568260 -7.056230 0.000000 
				CHANNELS 3 Zrotation Yrotation Xrotation
				JOINT RightToeBase
				{
					OFFSET -0.164730 -0.452590 2.363150 
					CHANNELS 3 Zrotation Yrotation Xrotation
					End Site
					{
						OFFSET 0.000000 0.000000 0.000000 
					}
				}
			}
		}
	}
	JOINT Spine
	{
		OFFSET 0.028270 2.035590 -0.193380 
		CHANNELS 3 Zrotation Yrotation Xrotation
		JOINT Spine1
		{
			OFFSET 0.056720 2.048850 -0.042750 
			CHANNELS 3 Zrotation Yrotation Xrotation
			JOINT Neck1
			{
				OFFSET -0.054170 1.746240 0.172020 
				CHANNELS 3 Zrotation Yrotation Xrotation
				JOINT Head
				{
					OFFSET 0.104070 1.761360 -0.123970 
					CHANNELS 3 Zrotation Yrotation Xrotation
					End Site
					{
						OFFSET 0.000000 0.000000 0.000000 
					}
				}
			}
			JOINT LeftArm
			{
				OFFSET 3.362410 1.200890 -0.311210 
				CHANNELS 3 Zrotation Yrotation Xrotation
				JOINT LeftForeArm
				{
					OFFSET 4.983000 -0.000000 -0.000000 
					CHANNELS 3 Zrotation Yrotation Xrotation
					JOINT LeftHand
					{
						OFFSET 3.483560 -0.000000 -0.000000 
						CHANNELS 3 Zrotation Yrotation Xrotation
						JOINT LeftHandIndex1
						{
							OFFSET 0.715260 -0.000000 -0.000000 
							CHANNELS 3 Zrotation Yrotation Xrotation
							End Site
							{
								OFFSET 0.000000 0.000000 0.000000 
							}
						}
					}
				}
			}
			JOINT RightArm
			{
				OFFSET -3.136600 1.374050 -0.404650 
				CHANNELS 3 Zrotation Yrotation Xrotation
				JOINT RightForeArm
				{
					OFFSET -5.241900 -0.000000 -0.000000 
					CHANNELS 3 Zrotation Yrotation Xrotation
					JOINT RightHand
					{
						OFFSET -3.444170 -0.000000 -0.000000 
						CHANNELS 3 Zrotation Yrotation Xrotation
						JOINT RightHandIndex1
						{
							OFFSET -0.622530 -0.000000 -0.000000 
							CHANNELS 3 Zrotation Yrotation Xrotation
							End Site
							{
								OFFSET 0.000000 0.000000 0.000000 
							}
						}
					}
				}
			}
		}
	}
}
MOTION
Frames: 13
Frame Time: 0.041667
9.639155 16.699128 -3.589686 6.061002 -45.490790 25.103555 -20.920176 -4.474420 -58.726496 6.239195 20.865701 54.927907 -0.689827 9.458327 -13.908310 0.221500 3.029500 8.360900 18.865379 20.901227 -62.443204 -4.264286 -20.828546 49.503985 -0.237650 -5.436960 -14.584788 -0.010900 0.673400 -1.850400 2.753340 -1.426645 2.675233 8.939514 -1.117013 -5.959597 4.889990 2.340577 -8.136125 3.085200 1.543000 -2.121500 -48.569798 -46.340238 34.168058 24.173770 -22.687097 -7.242342 -2.614160 -0.006983 22.082443 -7.125000 0.000000 0.000000 46.544671 38.625341 60.596587 -28.755229 26.855086 -7.790945 -0.789774 -1.670995 -37.590687 7.125000 0.000000 0.000000 
9.599681 16.686982 -3.556285 5.809326 -45.642297 25.335655 -20.847787 -4.655453 -59.081858 5.997478 20.787254 54.271403 -0.784811 10.078983 -14.074657 0.073800 1.752400 4.821700 19.246711 20.893384 -62.412573 -4.324802 -20.877400 49.724436 -0.214287 -5.772351 -14.668085 -0.072200 1.733800 -4.770600 2.862261 -1.364937 2.746241 9.223970 -1.125015 -5.900527 4.552788 2.419646 -8.129198 2.889800 1.544500 -2.092900 -48.416824 -46.808786 35.363421 24.329761 -23.148569 -7.964519 -2.792679 -0.372908 16.803307 -7.125000 0.000000 0.000000 46.745711 38.612874 60.513517 -28.602814 26.707846 -7.720623 -0.806376 -1.666920 -37.659897 7.125000 0.000000 0.000000 
9.561182 16.671800 -3.520714 5.261778 -45.729731 25.899118 -20.456156 -4.842285 -59.617000 5.797214 20.749774 53.719948 -0.859763 10.626628 -14.363575 0.002500 0.322600 0.886500 19.827924 20.946427 -62.486000 -4.366984 -20.925033 49.908875 -0.219033 -5.893890 -14.860376 -0.111400 2.151800 -5.925300 2.951625 -1.269222 2.830037 9.386629 -1.128923 -5.675452 4.720640 2.411626 -8.003698 3.055000 1.575600 -1.979400 -49.038196 -48.696617 33.513608 23.310095 -21.301298 -7.105488 -2.921011 -0.171537 20.004827 -7.125000 0.000000 0.000000 46.351805 38.146637 60.010993 -28.950304 27.104873 -7.834627 -0.792227 -1.645230 -37.630752 7.125000 0.000000 0.000000 
9.518346 16.662907 -3.481348 4.897978 -45.882921 26.317866 -20.166612 -4.961602 -60.121116 5.640205 20.714222 53.281540 -0.793787 10.402271 -14.765261 0.032500 1.164000 3.200200 20.197062 21.041996 -62.483358 -4.400232 -20.956789 50.045166 -0.219368 -6.042026 -15.029064 -0.137900 2.393100 -6.593300 2.860682 -1.272305 2.958205 9.022914 -1.171310 -5.330894 5.011277 2.303675 -7.737920 3.171900 1.525700 -1.685300 -48.006083 -49.996548 32.253117 22.698459 -20.197460 -6.640964 -3.009142 -0.161247 21.395034 -7.125000 0.000000 0.000000 46.587149 38.063200 59.280680 -29.130159 27.262145 -7.880864 -0.780625 -1.639795 -37.197250 7.125000 0.000000 0.000000 
9.482233 16.645881 -3.443067 4.360323 -45.905152 26.846545 -19.633317 -5.299871 -60.624938 5.501542 20.702182 52.881886 -0.796845 10.480772 -14.880026 0.136900 2.384700 6.570000 20.763398 21.044241 -62.450996 -4.414661 -20.971203 50.131685 -0.265396 -5.846942 -15.381566 -0.099400 2.033600 -5.598500 2.847696 -1.269133 3.080490 8.775005 -1.206340 -5.144556 4.780892 2.332320 -7.736525 2.948900 1.480800 -1.596200 -46.560686 -50.831342 31.348524 22.368757 -19.686285 -6.518121 -3.099988 -0.266675 21.191524 -7.125000 0.000000 0.000000 46.646573 37.945130 58.713320 -29.304075 27.430888 -7.928873 -0.783447 -1.625300 -37.208706 7.125000 0.000000 0.000000 
9.449591 16.638941 -3.406737 3.774081 -45.942934 27.248690 -18.977501 -5.748877 -60.899945 5.343784 20.666535 52.421694 -0.811739 10.665349 -15.104914 0.282300 3.417100 9.442400 21.541946 20.912457 -62.216104 -4.416475 -20.954212 50.176594 -0.315205 -5.594975 -15.713894 -0.091900 1.954700 -5.380500 3.089413 -1.097616 3.107959 9.433252 -1.168830 -5.252724 4.518842 2.414104 -7.872969 2.966500 1.552000 -1.736100 -47.119802 -51.923306 30.496352 22.108401 -19.014827 -6.403632 -3.219772 -0.257052 21.992663 -7.125000 0.000000 0.000000 46.006795 37.234649 58.609174 -29.697992 27.949649 -8.128299 -0.784561 -1.592982 -37.679244 7.125000 0.000000 0.000000 
9.403826 16.649785 -3.377782 3.552321 -46.464596 27.361754 -18.782041 -5.815881 -61.104722 5.188273 20.603672 51.982465 -0.819476 10.803737 -15.375792 0.317600 3.622600 10.017300 21.884227 21.122232 -61.913950 -4.405852 -20.919915 50.154247 -0.320420 -5.643769 -15.823712 -0.159600 2.574400 -7.096000 3.189715 -0.843261 3.208758 9.910451 -1.104491 -5.163683 4.337515 2.443663 -8.050609 2.939100 1.576300 -1.847600 -47.302034 -53.017065 29.196484 21.921159 -18.344396 -6.179593 -3.291812 -0.207120 23.911586 -7.125000 0.000000 0.000000 45.703970 36.744404 58.398816 -30.076395 28.415493 -8.321360 -0.768645 -1.572297 -38.044887 7.125000 0.000000 0.000000 
9.370642 16.648918 -3.334186 3.800483 -46.537143 27.332166 -18.861246 -6.360769 -61.596394 5.005507 20.564126 51.505664 -0.868378 11.111081 -15.345211 0.172200 2.672800 7.369200 21.836581 20.831949 -61.974156 -4.439064 -20.944302 50.245647 -0.379680 -5.202299 -16.063039 -0.110500 2.142900 -5.900800 3.189344 -0.956002 3.286224 9.965785 -1.183251 -5.045469 4.042351 2.532758 -8.222004 2.704800 1.567100 -1.921500 -46.905320 -53.963170 27.516095 21.579948 -17.780728 -6.260528 -3.464564 0.047872 25.679650 -7.125000 0.000000 0.000000 45.573473 36.311817 58.193461 -30.422653 28.842914 -8.511834 -0.760365 -1.552759 -38.424512 7.125000 0.000000 0.000000 
9.319672 16.632325 -3.313256 3.636931 -47.324371 27.343739 -19.046414 -5.714666 -61.888311 4.855305 20.450223 51.017624 -0.887834 10.896828 -14.654741 0.154100 2.529500 6.971300 21.931654 21.431922 -61.727426 -4.478873 -20.945586 50.356454 -0.435007 -4.792378 -16.252114 -0.029100 1.100700 -3.026000 3.240737 -0.580452 3.332759 10.488901 -1.059656 -5.128302 3.729985 2.669623 -8.140911 2.715400 1.609900 -2.073000 -46.811823 -54.856486 26.474931 21.325294 -17.200801 -6.232048 -3.600384 0.128172 27.211005 -7.125000 0.000000 0.000000 45.264621 35.597959 58.279840 -30.885788 29.471850 -8.838117 -0.708415 -1.547315 -39.184387 7.125000 0.000000 0.000000 
9.295055 16.609877 -3.274649 3.791719 -46.946563 27.416557 -18.983068 -6.407110 -62.546047 4.678700 20.410541 50.504294 -0.950702 10.998713 -13.716885 0.136400 2.380500 6.558500 22.030113 20.988808 -61.916220 -4.541330 -21.013059 50.568294 -0.432453 -5.004483 -16.448574 -0.017100 0.843300 -2.317700 3.256391 -0.820913 3.344710 10.483504 -1.181553 -5.069416 3.603341 2.764332 -7.977845 2.624800 1.633500 -1.940300 -46.553474 -55.664759 25.222668 21.168223 -16.695008 -6.167164 -3.700469 0.209291 29.145894 -7.125000 0.000000 0.000000 44.898452 34.923058 58.454505 -31.535439 30.282073 -9.271869 -0.621728 -1.546443 -40.406899 7.125000 0.000000 0.000000 
9.238662 16.623433 -3.244935 3.459002 -47.309723 27.655220 -18.890611 -6.140129 -62.874334 4.492461 20.297768 49.930732 -0.947288 10.890562 -13.558281 0.102000 2.059700 5.670700 22.459385 21.256842 -61.579085 -4.566239 -21.008128 50.670315 -0.423775 -5.409665 -16.756130 -0.038700 1.269600 -3.490900 3.213682 -0.650783 3.408602 10.511961 -1.132804 -4.974044 3.591806 2.776346 -7.927420 2.584300 1.627700 -1.905200 -46.447291 -56.436228 24.395760 20.936985 -16.193254 -6.226722 -3.829453 0.433705 30.237977 -7.125000 0.000000 0.000000 44.699799 34.191465 58.684840 -32.308642 31.142141 -9.719088 -0.570500 -1.527767 -41.667869 7.125000 0.000000 0.000000 
9.176956 16.627120 -3.214462 3.535667 -47.893974 27.734217 -19.207639 -5.744102 -63.339798 4.305091 20.179862 49.375268 -0.890616 10.492570 -13.463240 0.124400 2.274000 6.263400 22.423641 21.672078 -61.497604 -4.599196 -21.033297 50.783679 -0.381056 -6.017318 -16.900323 -0.091900 1.954800 -5.380700 3.058175 -0.557063 3.395666 10.387270 -1.082132 -4.971937 3.629036 2.794834 -8.034070 2.567700 1.638100 -2.030700 -46.477896 -57.143628 24.509407 20.693629 -15.712253 -6.308417 -3.967307 0.570002 30.246203 -7.125000 0.000000 0.000000 44.862979 33.507319 58.987601 -32.971008 31.843838 -10.087109 -0.536805 -1.510663 -42.571560 7.125000 0.000000 0.000000 
9.139759 16.619203 -3.166637 3.856814 -47.749393 27.521128 -19.448901 -6.193375 -63.756492 4.135031 20.101933 48.875795 -0.984621 10.795666 -12.470202 0.054700 1.509200 4.151200 22.477478 21.269416 -61.399149 -4.637252 -21.059154 50.912902 -0.318123 -6.807895 -17.090360 -0.174200 2.688900 -7.413700 2.937795 -0.825840 3.325980 10.119815 -1.168419 -5.176606 3.593375 2.840251 -8.168402 2.547900 1.665400 -2.149200 -46.121548 -57.578614 24.548825 20.641493 -15.462481 -6.312780 -4.055736 0.533325 30.016656 -7.125000 0.000000 0.000000 44.851107 32.799293 59.313958 -33.653017 32.510988 -10.459332 -0.571179 -1.478731 -43.094211 7.125000 0.000000 0.000000 
